SplineFontDB: 3.2
FontName: DevToys-Tools-Icons
FullName: DevToys-Tools-Icons
FamilyName: DevToys-Tools-Icons
Weight: Regular
Copyright: Copyright (c) 2022
UComments: "2022-1-16: Created with FontForge (http://fontforge.org)"
Version: 001.000
ItalicAngle: 0
UnderlinePosition: 0
UnderlineWidth: 0
Ascent: 1024
Descent: 0
InvalidEm: 0
LayerCount: 2
Layer: 0 0 "Back" 1
Layer: 1 0 "Fore" 0
XUID: [1021 288 -1012597847 25228]
StyleMap: 0x0000
FSType: 0
OS2Version: 0
OS2_WeightWidthSlopeOnly: 0
OS2_UseTypoMetrics: 1
CreationTime: 1642371451
ModificationTime: 1657607733
PfmFamily: 17
TTFWeight: 400
TTFWidth: 5
LineGap: 92
VLineGap: 92
OS2TypoAscent: 0
OS2TypoAOffset: 1
OS2TypoDescent: 0
OS2TypoDOffset: 1
OS2TypoLinegap: 92
OS2WinAscent: 0
OS2WinAOffset: 1
OS2WinDescent: 0
OS2WinDOffset: 1
HheadAscent: 0
HheadAOffset: 1
HheadDescent: 0
HheadDOffset: 1
OS2Vendor: 'PfEd'
MarkAttachClasses: 1
DEI: 91125
LangName: 1033
Encoding: Custom
UnicodeInterp: none
NameList: AGL For New Fonts
DisplaySize: -48
AntiAlias: 1
FitToEm: 0
WinInfo: 0 38 14
BeginPrivate: 0
EndPrivate
TeXData: 1 0 0 346030 173015 115343 0 1048576 115343 783286 444596 497025 792723 393216 433062 380633 303038 157286 324010 404750 52429 2506097 1059062 262144
BeginChars: 290 34

StartChar: Base64EncoderDecoder
Encoding: 256 256 0
Width: 1024
Flags: HW
LayerCount: 2
Fore
SplineSet
188 870 m 2
 179 870 171 867 164 860 c 0
 157 853 154 845 154 836 c 2
 154 178 l 2
 154 173 154 171 156 166 c 0
 158 161 161 157 164 154 c 0
 167 151 171 148 176 146 c 0
 181 144 183 144 188 144 c 2
 846 144 l 2
 855 144 863 147 870 154 c 0
 877 161 880 169 880 178 c 2
 880 836 l 2
 880 845 877 853 870 860 c 0
 863 867 855 870 846 870 c 2
 188 870 l 2
72 845 m 2
 72 873 84 900 104 920 c 0
 124 940 151 952 179 952 c 2
 856 952 l 2
 870 952 884 949 897 943 c 0
 910 937 921 929 930 920 c 0
 939 911 947 899 953 886 c 0
 959 873 962 859 962 845 c 2
 962 168 l 2
 962 140 950 114 930 94 c 0
 910 74 884 62 856 62 c 2
 179 62 l 2
 165 62 151 65 138 71 c 0
 125 77 113 85 104 94 c 0
 95 103 87 114 81 127 c 0
 75 140 72 154 72 168 c 2
 72 845 l 2
346 454 m 1
 346 452 343 449 343 447 c 2
 343 434 l 2
 343 422 351 414 363 414 c 2
 404 414 l 2
 416 414 424 422 424 434 c 0
 424 446 416 454 404 454 c 2
 346 454 l 1
667 653 m 1
 749 653 l 1
 749 335 l 1
 667 335 l 1
 667 454 l 1
 546 454 l 1
 546 652 l 1
 627 652 l 1
 627 534 l 1
 667 534 l 1
 667 653 l 1
393 655 m 1
 453 603 l 1
 393 534 l 1
 404 534 l 2
 460 534 505 488 505 434 c 0
 505 380 460 335 404 335 c 2
 363 335 l 2
 307 335 262 380 262 434 c 2
 262 447 l 2
 262 486 277 524 304 554 c 2
 393 655 l 1
EndSplineSet
EndChar

StartChar: ColorBlindnessSimulator
Encoding: 257 257 1
Width: 1024
Flags: H
LayerCount: 2
Fore
SplineSet
613 717 m 0
 582 727 551 734 517 734 c 0
 333 734 176 550 141 507 c 1
 157 486 196 439 263 386 c 0
 269 381 274 373 275 365 c 0
 276 357 273 349 268 343 c 0
 263 337 256 333 248 332 c 0
 240 331 232 333 226 338 c 0
 136 410 78 490 78 490 c 2
 75 495 72 501 72 507 c 0
 72 513 75 519 78 524 c 2
 78 524 266 793 517 793 c 0
 559 793 599 785 637 772 c 0
 649 769 660 764 670 759 c 0
 677 756 683 750 686 743 c 0
 689 736 689 728 686 721 c 0
 683 714 677 708 670 705 c 0
 663 702 654 702 647 705 c 0
 638 708 627 712 618 715 c 0
 617 715 614 716 613 717 c 0
813 832 m 0
 821 832 828 830 834 824 c 0
 840 818 843 811 843 803 c 0
 843 795 840 789 834 783 c 2
 241 190 l 2
 235 184 229 181 221 181 c 0
 213 181 206 184 200 190 c 0
 194 196 191 203 191 211 c 0
 191 219 194 226 200 232 c 2
 793 824 l 2
 799 830 805 832 813 832 c 0
517 684 m 0
 525 684 533 683 541 682 c 0
 549 681 557 677 562 671 c 0
 567 665 569 657 568 649 c 0
 567 641 563 634 556 629 c 0
 549 624 541 623 533 624 c 0
 527 625 523 625 517 625 c 0
 451 625 399 573 399 507 c 0
 399 501 399 497 400 491 c 0
 401 483 399 476 394 469 c 0
 389 462 383 457 375 456 c 0
 367 455 359 458 353 463 c 0
 347 468 342 475 341 483 c 0
 340 491 340 499 340 507 c 0
 340 604 420 684 517 684 c 0
662 557 m 0
 669 557 677 555 683 550 c 0
 689 545 692 538 693 531 c 0
 694 523 694 515 694 507 c 0
 694 410 614 330 517 330 c 0
 509 330 501 330 493 331 c 0
 485 332 478 337 473 343 c 0
 468 349 466 357 467 365 c 0
 468 373 472 379 479 384 c 0
 486 389 493 391 501 390 c 0
 507 389 511 389 517 389 c 0
 583 389 635 441 635 507 c 0
 635 513 635 517 634 523 c 0
 633 531 635 539 641 546 c 0
 647 553 654 557 662 557 c 0
789 682 m 0
 796 682 802 680 808 675 c 0
 898 603 956 524 956 524 c 2
 959 519 962 513 962 507 c 0
 962 501 959 495 956 490 c 2
 956 490 768 221 517 221 c 0
 475 221 435 229 397 242 c 0
 389 244 382 250 379 257 c 0
 376 264 376 272 378 280 c 0
 380 288 386 293 393 296 c 0
 400 299 409 300 416 298 c 0
 448 286 482 280 517 280 c 0
 701 280 858 464 893 507 c 1
 877 528 839 576 772 629 c 0
 765 634 761 641 760 649 c 0
 759 657 761 667 767 673 c 0
 773 679 781 682 789 682 c 0
EndSplineSet
EndChar

StartChar: Base64ImageEncoderDecoder
Encoding: 258 258 2
Width: 1024
Flags: H
LayerCount: 2
Fore
SplineSet
409 849 m 1
 470 796 l 1
 409 725 l 1
 421 725 l 2
 476 725 522 679 522 624 c 0
 522 569 476 524 421 524 c 2
 381 524 l 2
 326 524 279 569 279 624 c 2
 279 637 l 2
 279 678 295 716 321 747 c 2
 409 849 l 1
684 847 m 1
 764 847 l 1
 764 524 l 1
 684 524 l 1
 684 645 l 1
 563 645 l 1
 563 845 l 1
 643 845 l 1
 643 725 l 1
 684 725 l 1
 684 847 l 1
363 645 m 1
 363 643 361 639 361 637 c 2
 361 624 l 2
 361 613 370 604 381 604 c 2
 421 604 l 2
 432 604 441 613 441 624 c 0
 441 635 432 645 421 645 c 2
 363 645 l 1
79 855 m 2
 79 883 90 909 111 930 c 0
 132 951 156 962 184 962 c 2
 862 962 l 2
 890 962 916 951 937 930 c 0
 958 909 968 883 968 855 c 2
 968 420 l 2
 969 416 969 411 969 407 c 2
 969 159 l 2
 969 112 929 73 882 73 c 2
 862 73 l 1
 563 73 l 1
 184 73 l 2
 156 73 132 83 111 104 c 0
 90 125 79 150 79 178 c 2
 79 855 l 2
195 881 m 2
 186 881 177 878 170 871 c 0
 163 864 160 854 160 845 c 2
 160 188 l 2
 160 179 163 171 170 164 c 0
 177 157 186 153 195 153 c 2
 477 153 l 1
 477 155 477 157 477 159 c 2
 477 407 l 2
 477 454 516 493 563 493 c 2
 882 493 l 2
 884 493 886 493 888 493 c 1
 888 845 l 2
 888 854 884 864 877 871 c 0
 870 878 862 881 853 881 c 2
 195 881 l 2
722 393 m 0
 701 393 684 376 684 355 c 0
 684 334 701 316 722 316 c 0
 743 316 762 334 762 355 c 0
 762 376 743 393 722 393 c 0
867 162 m 2
 877 162 882 172 878 181 c 2
 816 289 l 2
 810 298 797 298 793 289 c 2
 732 184 l 1
 662 306 l 2
 656 315 644 315 640 306 c 2
 567 181 l 2
 563 172 568 162 578 162 c 2
 722 162 l 2
 726 162 730 164 732 166 c 1
 734 164 738 162 742 162 c 2
 867 162 l 2
EndSplineSet
EndChar

StartChar: Converters
Encoding: 259 259 3
Width: 1024
Flags: H
LayerCount: 2
Fore
SplineSet
354 410 m 2
 664 410 l 2
 682 410 695 397 695 379 c 0
 695 361 682 346 664 346 c 2
 354 346 l 2
 336 346 322 361 322 379 c 0
 322 397 336 410 354 410 c 2
354 549 m 2
 535 549 l 1
 536 549 l 2
 554 549 567 534 567 516 c 0
 567 498 554 484 536 484 c 2
 535 484 l 1
 354 484 l 2
 336 484 322 498 322 516 c 0
 322 534 336 549 354 549 c 2
162 580 m 2
 163 580 l 2
 174 580 182 575 188 568 c 2
 270 486 l 2
 276 480 281 471 281 462 c 0
 281 444 266 431 248 431 c 0
 239 431 231 435 225 441 c 2
 194 471 l 1
 194 250 l 2
 194 220 218 197 248 197 c 2
 780 197 l 2
 810 197 834 220 834 250 c 2
 834 357 l 2
 834 375 847 389 865 389 c 0
 883 389 897 375 897 357 c 2
 897 250 l 2
 897 186 844 133 780 133 c 2
 248 133 l 2
 184 133 130 186 130 250 c 2
 130 471 l 1
 100 441 l 2
 94 435 85 431 76 431 c 0
 58 431 45 444 45 462 c 0
 45 471 49 480 55 486 c 2
 137 568 l 2
 143 575 152 580 162 580 c 2
354 687 m 2
 664 687 l 2
 682 687 695 672 695 654 c 0
 695 636 682 623 664 623 c 2
 354 623 l 2
 336 623 322 636 322 654 c 0
 322 672 336 687 354 687 c 2
248 900 m 2
 780 900 l 2
 844 900 897 847 897 783 c 2
 897 562 l 1
 928 592 l 2
 934 598 943 602 952 602 c 0
 970 602 983 589 983 571 c 0
 983 562 979 553 973 547 c 2
 891 465 l 2
 885 458 876 453 865 453 c 0
 854 453 846 458 840 465 c 2
 757 547 l 2
 751 553 747 562 747 571 c 0
 747 589 762 602 780 602 c 0
 789 602 797 598 803 592 c 2
 834 562 l 1
 834 783 l 2
 834 813 810 836 780 836 c 2
 248 836 l 2
 218 836 194 813 194 783 c 2
 194 676 l 2
 194 658 181 644 163 644 c 0
 145 644 130 658 130 676 c 2
 130 783 l 2
 130 847 184 900 248 900 c 2
EndSplineSet
EndChar

StartChar: CronParser
Encoding: 260 260 4
Width: 1024
Flags: H
HStem: 63 90<384.082 649.993> 874 90<384.082 649.993>
VStem: 66 90<381.082 646.993> 472 90<542.064 779.895> 877 90<381.082 646.993>
LayerCount: 2
Fore
SplineSet
517 964 m 0
 765 964 967 762 967 514 c 0
 967 266 765 63 517 63 c 0
 269 63 66 266 66 514 c 0
 66 762 269 964 517 964 c 0
517 874 m 0
 318 874 156 713 156 514 c 0
 156 315 318 153 517 153 c 0
 716 153 877 315 877 514 c 0
 877 713 716 874 517 874 c 0
472 739 m 2
 472 763 493 784 517 784 c 0
 541 784 562 763 562 739 c 2
 562 542 l 1
 718 464 l 2
 734 457 742 441 742 424 c 0
 742 417 741 409 737 403 c 0
 730 387 713 378 696 378 c 0
 690 378 682 379 676 383 c 2
 496 474 l 2
 480 481 472 497 472 514 c 2
 472 739 l 2
EndSplineSet
EndChar

StartChar: EncodersDecoders
Encoding: 261 261 5
Width: 1024
Flags: H
LayerCount: 2
Fore
SplineSet
142 568 m 0
 121 568 104 585 104 606 c 2
 104 836 l 1
 78 827 l 2
 74 826 69 826 65 826 c 0
 49 826 33 835 28 851 c 0
 27 855 27 860 27 864 c 0
 27 880 36 895 52 900 c 2
 129 926 l 2
 133 927 138 928 142 928 c 0
 150 928 159 926 165 921 c 0
 175 913 181 902 181 889 c 2
 181 606 l 2
 181 585 163 568 142 568 c 0
425 104 m 0
 404 104 387 122 387 143 c 2
 387 372 l 1
 361 363 l 2
 357 362 353 362 349 362 c 0
 333 362 316 372 311 388 c 0
 310 392 310 397 310 401 c 0
 310 417 319 431 335 436 c 2
 413 463 l 2
 417 464 420 465 424 465 c 0
 433 465 441 462 448 457 c 0
 458 449 464 439 464 426 c 2
 464 143 l 2
 464 122 446 104 425 104 c 0
631 104 m 0
 610 104 592 122 592 143 c 2
 592 372 l 1
 567 363 l 2
 563 362 559 362 555 362 c 0
 539 362 523 372 518 388 c 0
 517 392 516 397 516 401 c 0
 516 417 526 431 542 436 c 2
 619 463 l 2
 623 464 626 465 630 465 c 0
 639 465 647 462 654 457 c 0
 664 449 669 439 669 426 c 2
 669 143 l 2
 669 122 652 104 631 104 c 0
683 568 m 0
 662 568 644 585 644 606 c 2
 644 836 l 1
 617 827 l 2
 613 826 609 826 605 826 c 0
 589 826 574 835 569 851 c 0
 568 855 568 860 568 864 c 0
 568 880 577 895 593 900 c 2
 671 926 l 2
 675 927 679 928 683 928 c 0
 691 928 700 926 706 921 c 0
 716 913 721 902 721 889 c 2
 721 606 l 2
 721 585 704 568 683 568 c 0
915 568 m 0
 894 568 875 585 875 606 c 2
 875 836 l 1
 849 827 l 2
 845 826 840 826 836 826 c 0
 820 826 806 835 801 851 c 0
 800 855 800 860 800 864 c 0
 800 880 809 895 825 900 c 2
 902 926 l 2
 906 927 911 928 915 928 c 0
 923 928 931 926 937 921 c 0
 947 913 952 902 952 889 c 2
 952 606 l 2
 952 585 936 568 915 568 c 0
875 104 m 0
 804 104 748 162 748 233 c 2
 748 335 l 2
 748 406 804 464 875 464 c 0
 946 464 1004 406 1004 335 c 2
 1004 233 l 2
 1004 162 946 104 875 104 c 0
875 387 m 0
 847 387 825 363 825 335 c 2
 825 233 l 2
 825 205 847 181 875 181 c 0
 903 181 927 205 927 233 c 2
 927 335 l 2
 927 363 903 387 875 387 c 0
387 568 m 0
 316 568 258 625 258 696 c 2
 258 799 l 2
 258 870 316 928 387 928 c 0
 458 928 515 870 515 799 c 2
 515 696 l 2
 515 625 458 568 387 568 c 0
387 851 m 0
 359 851 335 827 335 799 c 2
 335 696 l 2
 335 668 359 645 387 645 c 0
 415 645 438 668 438 696 c 2
 438 799 l 2
 438 827 415 851 387 851 c 0
155 104 m 0
 84 104 26 162 26 233 c 2
 26 335 l 2
 26 406 84 464 155 464 c 0
 226 464 284 406 284 335 c 2
 284 233 l 2
 284 162 226 104 155 104 c 0
155 387 m 0
 127 387 104 363 104 335 c 2
 104 233 l 2
 104 205 127 181 155 181 c 0
 183 181 206 205 206 233 c 2
 206 335 l 2
 206 363 183 387 155 387 c 0
EndSplineSet
EndChar

StartChar: UuidGenerator
Encoding: 262 262 6
Width: 1024
Flags: H
LayerCount: 2
Fore
SplineSet
385 943 m 0
 403 943 418 941 434 938 c 0
 450 935 465 930 480 924 c 1
 480 870 l 1
 465 877 451 884 435 888 c 0
 419 892 403 895 385 895 c 0
 364 895 346 891 330 884 c 0
 314 877 301 866 289 852 c 0
 279 838 270 823 264 804 c 0
 259 785 255 764 255 741 c 0
 255 717 257 696 262 677 c 0
 267 658 274 644 284 630 c 0
 294 616 307 606 323 599 c 0
 339 592 359 589 381 589 c 0
 385 589 388 589 392 589 c 0
 396 589 402 590 406 591 c 0
 410 592 414 592 418 593 c 0
 422 594 426 596 429 597 c 2
 429 721 l 1
 349 721 l 1
 349 765 l 1
 481 765 l 1
 481 566 l 1
 473 562 465 558 456 555 c 0
 447 552 437 550 428 548 c 0
 419 546 409 545 400 544 c 0
 391 543 381 541 373 541 c 0
 347 541 322 546 301 554 c 0
 280 562 261 574 246 591 c 0
 231 608 220 629 212 653 c 0
 204 677 199 705 199 738 c 0
 199 771 204 799 213 824 c 0
 222 849 234 870 250 888 c 0
 267 906 286 920 309 929 c 0
 332 938 358 943 385 943 c 0
549 937 m 1
 601 937 l 1
 601 679 l 2
 601 663 602 651 605 639 c 0
 608 627 614 617 620 610 c 0
 626 603 635 596 645 592 c 0
 655 588 669 587 684 587 c 0
 712 587 732 594 746 611 c 0
 760 628 767 651 767 680 c 2
 767 937 l 1
 820 937 l 1
 820 683 l 2
 820 662 816 642 810 624 c 0
 804 607 796 593 784 580 c 0
 772 567 758 558 741 552 c 0
 724 546 704 541 682 541 c 0
 658 541 637 545 620 551 c 0
 603 557 589 566 579 578 c 0
 569 590 561 603 556 620 c 0
 551 637 549 655 549 675 c 2
 549 937 l 1
232 469 m 1
 465 469 l 1
 465 424 l 1
 374 424 l 1
 374 125 l 1
 465 125 l 1
 465 79 l 1
 232 79 l 1
 232 125 l 1
 321 125 l 1
 321 424 l 1
 232 424 l 1
 232 469 l 1
549 469 m 1
 649 469 l 2
 710 469 756 454 785 422 c 0
 815 390 830 342 830 278 c 0
 830 259 829 241 826 224 c 0
 823 207 818 192 812 177 c 0
 806 162 797 149 787 136 c 0
 777 124 765 114 750 106 c 0
 735 98 719 91 699 86 c 0
 679 82 657 79 632 79 c 2
 549 79 l 1
 549 469 l 1
601 424 m 1
 601 125 l 1
 641 125 l 2
 730 125 774 175 774 275 c 0
 774 302 772 326 767 345 c 0
 762 364 753 379 743 391 c 0
 733 403 719 411 703 416 c 0
 687 421 668 424 647 424 c 2
 601 424 l 1
EndSplineSet
EndChar

StartChar: HtmlEncoderDecoder
Encoding: 263 263 7
Width: 1024
Flags: H
LayerCount: 2
Fore
SplineSet
70 1014 m 1
 954 1014 l 1
 874 111 l 1
 511 10 l 1
 150 111 l 1
 70 1014 l 1
805 168 m 1
 874 940 l 1
 152 940 l 1
 221 168 l 1
 512 87 l 1
 513 87 l 1
 514 87 l 1
 805 168 l 1
648 494 m 1
 264 494 l 1
 234 829 l 1
 789 829 l 1
 779 718 l 1
 355 718 l 1
 365 605 l 1
 769 605 l 1
 739 265 l 1
 512 202 l 1
 511 202 l 1
 285 265 l 1
 269 439 l 1
 380 439 l 1
 388 350 l 1
 512 317 l 1
 635 351 l 1
 648 494 l 1
EndSplineSet
EndChar

StartChar: JsonFormatter
Encoding: 264 264 8
Width: 1024
Flags: H
LayerCount: 2
Fore
SplineSet
274 859 m 1
 274 800 l 1
 250 800 232 795 219 785 c 0
 206 775 198 756 193 730 c 0
 188 714 184 697 181 677 c 0
 178 657 175 641 174 627 c 0
 173 613 171 601 168 587 c 0
 165 573 159 561 152 552 c 0
 145 543 137 536 125 531 c 1
 137 527 146 518 153 508 c 0
 160 498 166 485 169 470 c 0
 172 455 174 441 176 427 c 0
 178 413 179 398 181 380 c 0
 183 362 186 349 188 339 c 0
 193 309 201 287 214 272 c 0
 227 257 248 250 274 250 c 1
 274 192 l 1
 233 192 200 199 176 215 c 0
 152 231 135 256 125 291 c 0
 123 299 120 313 119 331 c 0
 118 349 117 366 116 383 c 0
 115 400 112 418 109 435 c 0
 106 452 100 465 92 475 c 0
 84 485 74 490 61 490 c 1
 61 560 l 1
 81 560 96 574 104 602 c 0
 108 615 111 639 116 678 c 0
 116 679 116 679 116 680 c 0
 117 690 120 701 121 707 c 0
 122 713 123 723 125 733 c 0
 127 743 130 753 132 760 c 0
 134 767 139 776 143 785 c 0
 147 794 152 804 157 810 c 0
 162 816 169 823 176 829 c 0
 183 835 192 841 201 845 c 0
 210 849 221 853 234 855 c 0
 247 857 259 859 274 859 c 1
560 639 m 0
 560 623 556 610 547 600 c 0
 539 590 527 584 511 584 c 0
 496 584 483 590 474 600 c 0
 465 610 461 623 461 639 c 0
 461 655 465 668 474 678 c 0
 483 688 495 694 511 694 c 0
 526 694 538 688 547 678 c 0
 556 668 560 655 560 639 c 0
449 218 m 2
 449 243 l 1
 465 243 479 247 492 259 c 0
 505 271 511 283 511 299 c 1
 496 299 482 306 473 316 c 0
 464 326 459 339 459 355 c 0
 459 371 464 384 473 394 c 0
 482 404 495 411 511 411 c 0
 526 411 539 405 548 392 c 0
 557 379 563 364 563 346 c 0
 563 326 558 307 550 287 c 0
 542 267 531 250 516 237 c 0
 501 224 486 217 470 217 c 0
 460 217 452 217 449 218 c 2
743 192 m 1
 743 250 l 1
 766 250 784 256 796 265 c 0
 808 274 817 290 823 314 c 0
 827 328 831 347 833 371 c 0
 835 395 838 416 839 435 c 0
 840 454 845 471 852 489 c 0
 859 507 870 518 883 524 c 1
 875 528 868 534 862 542 c 0
 856 550 851 560 848 572 c 0
 845 584 843 595 841 605 c 0
 839 615 837 629 836 644 c 0
 835 662 833 675 832 687 c 0
 831 699 829 710 827 722 c 0
 825 734 823 745 820 752 c 0
 817 759 812 767 808 773 c 0
 804 779 799 786 793 789 c 0
 787 792 780 795 772 797 c 0
 764 799 754 800 744 800 c 1
 744 859 l 1
 766 859 784 855 801 850 c 0
 818 845 832 838 842 829 c 0
 852 821 862 809 869 794 c 0
 876 779 884 762 888 745 c 0
 892 728 897 709 900 685 c 2
 906 640 l 2
 910 612 916 592 923 579 c 0
 930 566 940 560 956 560 c 1
 956 490 l 1
 939 490 928 484 921 471 c 0
 914 458 909 440 906 412 c 2
 902 362 l 2
 900 347 898 334 896 324 c 0
 894 314 892 303 889 290 c 0
 886 277 881 265 877 257 c 0
 873 249 866 240 858 231 c 0
 851 223 840 215 830 210 c 0
 820 205 808 199 793 196 c 0
 778 193 761 192 743 192 c 1
EndSplineSet
EndChar

StartChar: JsonYaml
Encoding: 265 265 9
Width: 1024
Flags: H
LayerCount: 2
Fore
SplineSet
138 858 m 0
 138 867 142 877 149 884 c 0
 156 891 165 894 174 894 c 2
 779 894 l 2
 807 894 833 884 854 863 c 0
 875 842 885 816 885 788 c 2
 885 433 l 1
 905 452 l 2
 911 459 919 463 928 463 c 0
 937 463 945 460 952 454 c 0
 959 447 962 438 962 428 c 0
 962 418 959 411 952 404 c 2
 876 328 l 2
 869 321 862 317 852 317 c 0
 842 317 833 321 826 328 c 2
 750 404 l 2
 743 410 739 418 739 427 c 0
 739 436 742 445 748 452 c 0
 755 459 763 462 773 462 c 0
 783 462 792 459 799 452 c 2
 817 433 l 1
 817 790 l 2
 817 799 813 808 806 815 c 0
 799 822 791 825 782 825 c 2
 174 825 l 2
 165 825 156 828 149 835 c 0
 142 842 138 849 138 858 c 0
147 713 m 2
 154 720 162 724 172 724 c 0
 182 724 191 720 198 713 c 2
 274 637 l 2
 281 631 284 623 284 614 c 0
 284 605 281 596 275 589 c 0
 268 582 261 579 251 579 c 0
 241 579 232 582 225 589 c 2
 207 608 l 1
 207 251 l 2
 207 242 210 233 217 226 c 0
 224 219 233 215 242 215 c 2
 849 215 l 2
 858 215 868 213 875 206 c 0
 882 199 885 192 885 183 c 0
 885 174 882 164 875 157 c 0
 868 150 858 147 849 147 c 2
 244 147 l 2
 216 147 190 157 169 178 c 0
 148 199 138 225 138 253 c 2
 138 608 l 1
 120 589 l 2
 114 582 105 578 96 578 c 0
 87 578 79 581 72 587 c 0
 65 594 61 603 61 613 c 0
 61 623 65 630 72 637 c 2
 147 713 l 2
342 654 m 0
 342 663 345 673 352 680 c 0
 359 687 369 690 378 690 c 2
 647 690 l 2
 656 690 664 688 671 681 c 0
 678 674 682 667 682 658 c 0
 682 649 678 639 671 632 c 0
 664 625 656 622 647 622 c 2
 378 622 l 2
 369 622 360 624 353 631 c 0
 346 638 342 645 342 654 c 0
342 519 m 0
 342 528 345 537 352 544 c 0
 359 551 369 554 378 554 c 2
 647 554 l 2
 656 554 664 552 671 545 c 0
 678 538 682 531 682 522 c 0
 682 513 678 504 671 497 c 0
 664 490 656 487 647 487 c 2
 378 487 l 2
 369 487 360 489 353 496 c 0
 346 503 342 510 342 519 c 0
342 383 m 0
 342 392 345 402 352 409 c 0
 359 416 369 419 378 419 c 2
 544 419 l 2
 553 419 562 417 569 410 c 0
 576 403 579 396 579 387 c 0
 579 378 576 368 569 361 c 0
 562 354 553 351 544 351 c 2
 378 351 l 2
 369 351 360 353 353 360 c 0
 346 367 342 374 342 383 c 0
EndSplineSet
EndChar

StartChar: JwtDecoder
Encoding: 266 272 10
Width: 1024
Flags: H
LayerCount: 2
Fore
SplineSet
680 416 m 1
 834 206 l 1
 736 134 l 1
 587 338 l 1
 587 78 l 1
 465 78 l 1
 465 330 l 1
 312 120 l 1
 214 191 l 1
 363 396 l 1
 115 316 l 1
 77 431 l 1
 318 509 l 1
 70 589 l 1
 107 705 l 1
 348 627 l 1
 195 837 l 1
 294 909 l 1
 441 704 l 1
 441 965 l 1
 564 965 l 1
 564 712 l 1
 717 923 l 1
 815 852 l 1
 666 647 l 1
 914 727 l 1
 952 612 l 1
 710 534 l 1
 958 454 l 1
 921 338 l 1
 680 416 l 1
672 418 m 1
 630 497 l 1
 703 531 l 1
 701 531 l 1
 623 569 l 1
 661 640 l 1
 574 623 l 1
 564 704 l 1
 564 703 l 1
 503 639 l 1
 447 698 l 1
 447 697 l 1
 436 610 l 1
 355 625 l 1
 356 623 l 1
 398 546 l 1
 325 512 l 1
 327 512 l 1
 406 474 l 1
 367 402 l 1
 368 403 l 1
 454 420 l 1
 465 339 l 1
 465 340 l 1
 526 404 l 1
 581 346 l 1
 593 433 l 1
 672 418 l 1
EndSplineSet
EndChar

StartChar: LoremIpsumGenerator
Encoding: 267 273 11
Width: 1024
Flags: H
LayerCount: 2
Fore
SplineSet
606 116 m 1
 205 116 l 1
 205 887 l 1
 296 887 l 1
 296 198 l 1
 606 198 l 1
 606 116 l 1
758 806 m 0
 742 806 729 812 717 822 c 0
 705 832 701 847 701 863 c 0
 701 879 705 895 717 905 c 0
 729 917 742 921 758 921 c 0
 774 921 786 917 798 905 c 0
 810 895 816 879 816 863 c 0
 816 847 810 836 798 824 c 0
 786 812 774 806 758 806 c 0
800 116 m 1
 713 116 l 1
 713 667 l 1
 800 667 l 1
 800 116 l 1
EndSplineSet
EndChar

StartChar: MarkdownPreview
Encoding: 268 274 12
Width: 1024
Flags: H
LayerCount: 2
Fore
SplineSet
184 790 m 2
 854 790 l 2
 916 790 966 740 966 678 c 2
 966 333 l 2
 966 271 916 221 854 221 c 2
 184 221 l 2
 122 221 71 271 71 333 c 2
 71 678 l 2
 71 740 122 790 184 790 c 2
184 729 m 2
 155 729 133 707 133 678 c 2
 133 333 l 2
 133 304 155 282 184 282 c 2
 854 282 l 2
 883 282 905 304 905 333 c 2
 905 678 l 2
 905 707 883 729 854 729 c 2
 184 729 l 2
268 648 m 2
 270 648 l 2
 288 648 304 639 314 625 c 2
 380 529 l 1
 440 624 l 2
 450 639 467 648 485 648 c 0
 515 648 539 623 539 593 c 2
 539 404 l 2
 539 382 520 363 498 363 c 0
 476 363 458 382 458 404 c 2
 458 541 l 1
 413 481 l 2
 405 470 393 464 381 464 c 0
 368 464 356 471 347 482 c 2
 295 552 l 1
 295 404 l 2
 295 382 276 363 254 363 c 0
 232 363 214 382 214 404 c 2
 214 593 l 2
 214 623 238 648 268 648 c 2
722 648 m 0
 744 648 763 629 763 607 c 2
 763 505 l 1
 792 505 l 2
 811 505 823 489 823 474 c 0
 823 467 822 460 816 454 c 2
 748 375 l 2
 741 366 732 363 722 363 c 0
 712 363 702 366 695 375 c 2
 628 454 l 2
 622 460 620 467 620 474 c 0
 620 489 632 505 651 505 c 2
 681 505 l 1
 681 607 l 2
 681 629 700 648 722 648 c 0
EndSplineSet
EndChar

StartChar: RegexTester
Encoding: 269 275 13
Width: 1024
Flags: H
LayerCount: 2
Fore
SplineSet
119 521 m 0
 119 520 119 521 119 520 c 0
 119 464 126 408 140 356 c 0
 154 303 177 252 203 206 c 0
 205 202 206 198 207 194 c 0
 207 193 209 190 209 188 c 0
 209 186 207 185 207 184 c 0
 206 182 205 178 203 176 c 2
 196 170 l 1
 157 147 l 1
 137 177 120 209 105 242 c 0
 91 272 79 304 70 336 c 0
 61 367 55 397 51 429 c 0
 47 461 44 496 44 529 c 0
 44 562 47 593 51 625 c 0
 55 657 61 688 70 719 c 0
 79 751 91 783 105 813 c 0
 120 843 137 872 156 898 c 1
 195 874 l 1
 202 869 l 2
 204 867 205 864 206 862 c 0
 206 861 206 859 206 857 c 0
 206 855 206 853 206 852 c 0
 205 848 204 844 202 840 c 0
 150 747 119 639 119 525 c 0
 119 524 119 522 119 521 c 0
278 356 m 1
 278 357 l 2
 278 367 281 375 284 384 c 0
 287 393 291 399 298 406 c 0
 311 419 329 427 349 427 c 0
 359 427 367 425 376 422 c 0
 393 414 406 401 414 384 c 0
 417 375 419 367 419 357 c 2
 419 356 l 2
 419 346 417 337 414 328 c 0
 411 319 405 313 398 306 c 0
 391 299 385 294 376 291 c 0
 367 288 359 285 349 285 c 0
 339 285 329 288 320 291 c 0
 311 294 305 299 298 306 c 0
 286 319 278 335 278 354 c 2
 278 356 l 1
787 578 m 1
 762 534 l 1
 679 582 l 1
 663 592 l 2
 659 595 654 600 651 604 c 1
 654 595 655 585 655 575 c 0
 655 573 655 570 655 568 c 2
 655 475 l 1
 608 475 l 1
 608 568 l 2
 608 569 608 570 608 571 c 0
 608 583 610 593 613 604 c 1
 605 595 598 588 587 582 c 2
 504 534 l 1
 479 578 l 1
 560 626 l 2
 571 633 584 638 596 640 c 1
 583 642 570 645 560 652 c 2
 476 701 l 1
 502 745 l 1
 585 697 l 1
 600 686 l 2
 604 683 609 677 612 673 c 1
 609 682 608 692 608 702 c 0
 608 704 608 707 608 709 c 2
 608 804 l 1
 655 804 l 1
 655 709 l 2
 655 706 655 704 655 701 c 0
 655 698 655 694 655 691 c 0
 654 685 653 680 651 674 c 1
 659 683 667 690 678 697 c 2
 760 744 l 1
 785 700 l 1
 704 652 l 1
 687 644 l 2
 681 642 677 641 671 640 c 1
 677 639 681 637 687 635 c 0
 693 633 698 629 704 626 c 2
 787 578 l 1
908 521 m 2
 908 523 l 2
 908 579 901 634 887 686 c 0
 873 740 851 794 825 841 c 0
 823 845 821 849 820 853 c 0
 820 854 819 856 819 858 c 0
 819 860 820 862 820 863 c 0
 821 865 823 868 825 870 c 2
 831 876 l 1
 872 898 l 1
 892 868 909 837 924 804 c 0
 938 774 949 741 958 709 c 0
 967 678 974 648 978 616 c 0
 982 585 985 553 985 521 c 0
 985 489 983 458 979 427 c 0
 975 395 968 362 959 332 c 0
 950 300 938 269 924 239 c 0
 909 206 892 175 872 145 c 1
 833 168 l 1
 826 174 l 2
 824 176 823 178 822 180 c 0
 822 181 820 183 820 185 c 0
 820 187 822 189 822 190 c 0
 823 194 824 199 826 203 c 0
 852 250 874 301 888 354 c 0
 901 406 908 460 908 515 c 0
 908 517 908 519 908 521 c 2
EndSplineSet
EndChar

StartChar: SqlFormatter
Encoding: 270 276 14
Width: 1024
Flags: H
LayerCount: 2
Fore
SplineSet
211 885 m 2
 211 721 l 2
 211 704 212 696 213 686 c 1
 217 685 223 685 227 685 c 0
 234 685 240 685 248 685 c 2
 790 685 l 2
 798 685 804 685 811 685 c 0
 817 685 821 685 825 686 c 1
 826 696 827 704 827 721 c 2
 827 885 l 2
 827 902 826 910 825 920 c 1
 815 921 807 921 790 921 c 2
 248 921 l 2
 231 921 223 921 213 920 c 1
 212 910 211 902 211 885 c 2
211 306 m 2
 211 141 l 2
 211 124 212 116 213 106 c 1
 223 105 231 105 248 105 c 2
 790 105 l 2
 807 105 815 105 825 106 c 1
 826 116 827 124 827 141 c 2
 827 306 l 2
 827 323 826 331 825 341 c 1
 821 342 816 342 810 342 c 0
 803 342 798 342 790 342 c 2
 248 342 l 2
 240 342 234 342 228 342 c 0
 222 342 217 342 213 341 c 1
 212 331 211 323 211 306 c 2
211 595 m 2
 211 431 l 2
 211 414 212 406 213 396 c 1
 217 395 222 395 228 395 c 0
 235 395 240 395 248 395 c 2
 790 395 l 2
 798 395 803 395 810 395 c 0
 816 395 821 395 825 396 c 1
 826 406 827 414 827 431 c 2
 827 595 l 2
 827 612 826 621 825 631 c 1
 821 632 815 632 811 632 c 0
 804 632 798 632 790 632 c 2
 248 632 l 2
 240 632 234 632 227 632 c 0
 221 632 217 632 213 631 c 1
 212 621 211 612 211 595 c 2
158 595 m 2
 158 610 159 621 160 634 c 0
 161 642 162 651 166 659 c 1
 164 665 162 670 161 674 c 0
 159 683 158 690 158 700 c 0
 158 707 158 713 158 721 c 2
 158 885 l 2
 158 893 158 898 158 905 c 0
 158 915 159 923 161 932 c 0
 163 943 170 957 182 965 c 0
 191 971 200 972 209 973 c 0
 219 974 233 974 248 974 c 2
 790 974 l 2
 805 974 816 974 829 973 c 0
 838 972 847 971 856 965 c 0
 868 957 875 943 877 932 c 0
 879 923 880 915 880 905 c 0
 880 898 880 893 880 885 c 2
 880 721 l 2
 880 706 879 695 878 682 c 0
 877 674 876 665 872 657 c 1
 874 651 876 646 877 642 c 0
 879 633 880 626 880 616 c 0
 880 609 880 603 880 595 c 2
 880 431 l 2
 880 416 879 406 878 393 c 0
 877 385 876 377 872 369 c 1
 874 363 876 357 877 353 c 0
 879 344 880 337 880 327 c 0
 880 320 880 314 880 306 c 2
 880 141 l 2
 880 126 879 116 878 103 c 0
 877 94 876 84 870 75 c 0
 862 63 848 56 837 54 c 0
 828 52 820 52 811 52 c 0
 804 52 798 52 790 52 c 2
 248 52 l 2
 240 52 234 52 227 52 c 0
 217 52 209 52 200 54 c 0
 189 56 176 63 168 75 c 0
 162 84 161 94 160 103 c 0
 159 113 158 126 158 141 c 2
 158 306 l 2
 158 321 159 331 160 344 c 0
 161 352 162 361 166 369 c 1
 162 377 161 385 160 393 c 0
 159 403 158 416 158 431 c 2
 158 595 l 2
EndSplineSet
EndChar

StartChar: TextDiff
Encoding: 271 277 15
Width: 1024
Flags: H
LayerCount: 2
Fore
SplineSet
173 883 m 2
 173 904 182 924 197 939 c 0
 212 954 232 964 253 964 c 2
 395 964 l 2
 399 964 406 961 409 958 c 0
 412 955 414 948 414 944 c 2
 414 914 l 2
 414 908 413 904 409 900 c 0
 405 896 401 894 395 894 c 2
 259 894 l 2
 255 894 250 893 247 890 c 0
 244 887 242 882 242 878 c 2
 242 159 l 2
 242 153 245 147 249 143 c 0
 253 139 258 137 264 137 c 2
 390 137 l 2
 397 137 403 133 407 129 c 0
 411 125 414 120 414 113 c 2
 414 85 l 2
 414 81 412 76 409 73 c 0
 406 70 401 67 397 67 c 2
 258 67 l 2
 236 67 215 75 198 92 c 0
 181 109 173 130 173 152 c 2
 173 883 l 2
483 943 m 2
 483 949 485 953 489 957 c 0
 493 961 498 964 504 964 c 2
 531 964 l 2
 537 964 542 961 546 957 c 0
 550 953 552 949 552 943 c 2
 552 915 l 2
 552 909 550 905 546 901 c 0
 542 897 537 894 531 894 c 2
 504 894 l 2
 498 894 493 897 489 901 c 0
 485 905 483 909 483 915 c 2
 483 943 l 2
621 943 m 2
 621 949 623 953 627 957 c 0
 631 961 636 964 642 964 c 2
 778 964 l 2
 800 964 821 955 838 938 c 0
 855 921 862 901 862 879 c 2
 862 148 l 2
 862 127 854 105 839 90 c 0
 824 75 803 67 782 67 c 2
 640 67 l 2
 636 67 630 70 627 73 c 0
 624 76 621 83 621 87 c 2
 621 116 l 2
 621 122 623 126 627 130 c 0
 631 134 636 137 642 137 c 2
 776 137 l 2
 780 137 785 138 788 141 c 0
 791 144 794 149 794 153 c 2
 794 872 l 2
 794 878 791 884 787 888 c 0
 783 892 777 894 771 894 c 2
 644 894 l 2
 638 894 631 897 627 901 c 0
 623 905 621 910 621 916 c 2
 621 943 l 2
483 805 m 2
 483 811 485 815 489 819 c 0
 493 823 498 826 504 826 c 2
 531 826 l 2
 537 826 542 823 546 819 c 0
 550 815 552 811 552 805 c 2
 552 777 l 2
 552 771 550 767 546 763 c 0
 542 759 537 756 531 756 c 2
 504 756 l 2
 498 756 493 759 489 763 c 0
 485 767 483 771 483 777 c 2
 483 805 l 2
483 667 m 2
 483 673 485 677 489 681 c 0
 493 685 498 688 504 688 c 2
 531 688 l 2
 537 688 542 685 546 681 c 0
 550 677 552 673 552 667 c 2
 552 640 l 2
 552 634 550 629 546 625 c 0
 542 621 537 619 531 619 c 2
 504 619 l 2
 498 619 493 621 489 625 c 0
 485 629 483 634 483 640 c 2
 483 667 l 2
483 529 m 2
 483 535 485 540 489 544 c 0
 493 548 498 550 504 550 c 2
 531 550 l 2
 537 550 542 548 546 544 c 0
 550 540 552 535 552 529 c 2
 552 502 l 2
 552 496 550 491 546 487 c 0
 542 483 537 481 531 481 c 2
 504 481 l 2
 498 481 493 483 489 487 c 0
 485 491 483 496 483 502 c 2
 483 529 l 2
483 391 m 2
 483 397 485 402 489 406 c 0
 493 410 498 412 504 412 c 2
 531 412 l 2
 537 412 542 410 546 406 c 0
 550 402 552 397 552 391 c 2
 552 364 l 2
 552 358 550 354 546 350 c 0
 542 346 537 343 531 343 c 2
 504 343 l 2
 498 343 493 346 489 350 c 0
 485 354 483 358 483 364 c 2
 483 391 l 2
483 254 m 2
 483 260 485 264 489 268 c 0
 493 272 498 275 504 275 c 2
 531 275 l 2
 537 275 542 272 546 268 c 0
 550 264 552 260 552 254 c 2
 552 226 l 2
 552 220 550 216 546 212 c 0
 542 208 537 205 531 205 c 2
 504 205 l 2
 498 205 493 208 489 212 c 0
 485 216 483 220 483 226 c 2
 483 254 l 2
483 116 m 2
 483 122 485 126 489 130 c 0
 493 134 498 137 504 137 c 2
 531 137 l 2
 537 137 542 134 546 130 c 0
 550 126 552 122 552 116 c 2
 552 88 l 2
 552 82 550 78 546 74 c 0
 542 70 537 67 531 67 c 2
 504 67 l 2
 498 67 493 70 489 74 c 0
 485 78 483 82 483 88 c 2
 483 116 l 2
EndSplineSet
EndChar

StartChar: XMLValidator
Encoding: 272 278 16
Width: 1024
Flags: H
LayerCount: 2
Fore
SplineSet
849 91 m 1
 849 702 l 1
 654 702 l 1
 654 933 l 1
 653 933 l 1
 653 701 l 1
 848 701 l 1
 848 699 l 1
 652 699 l 1
 652 932 l 1
 178 932 l 1
 178 92 l 1
 848 92 l 1
 848 91 l 1
 849 91 l 1
687 904 m 1
 687 736 l 1
 826 736 l 1
 687 904 l 1
882 56 m 1
 142 56 l 1
 142 968 l 1
 678 968 l 1
 882 726 l 1
 882 56 l 1
678 971 m 1
 885 726 l 1
 885 53 l 1
 139 53 l 1
 139 971 l 1
 678 971 l 1
678 970 m 1
 140 970 l 1
 140 54 l 1
 884 54 l 1
 884 726 l 1
 678 970 l 1
688 901 m 1
 825 737 l 1
 688 737 l 1
 688 738 l 1
 823 738 l 1
 688 899 l 1
 688 901 l 1
389 350 m 1
 457 237 l 1
 673 452 l 1
 698 429 l 1
 452 179 l 1
 359 332 l 1
 451 177 l 1
 701 429 l 1
 673 454 l 1
 458 240 l 1
 390 351 l 1
 389 350 l 1
458 242 m 1
 673 455 l 1
 702 429 l 1
 451 176 l 1
 358 333 l 1
 390 352 l 1
 458 242 l 1
527 766 m 1
 244 766 l 1
 244 801 l 1
 243 801 l 1
 243 764 l 1
 529 764 l 1
 529 763 l 1
 242 763 l 1
 242 802 l 1
 529 802 l 1
 529 801 l 1
 527 801 l 1
 527 766 l 1
502 663 m 1
 244 663 l 1
 244 697 l 1
 502 697 l 1
 502 663 l 1
242 661 m 1
 242 699 l 1
 504 699 l 1
 504 661 l 1
 242 661 l 1
243 662 m 1
 503 662 l 1
 503 698 l 1
 243 698 l 1
 243 662 l 1
242 561 m 1
 242 599 l 1
 583 599 l 1
 583 561 l 1
 242 561 l 1
177 933 m 1
 176 933 l 1
 176 91 l 1
 177 91 l 1
 177 933 l 1
244 562 m 1
 244 597 l 1
 580 597 l 1
 580 562 l 1
 581 562 l 1
 581 598 l 1
 243 598 l 1
 243 562 l 1
 244 562 l 1
EndSplineSet
EndChar

StartChar: AllTools
Encoding: 273 279 17
Width: 1024
Flags: HW
LayerCount: 2
Fore
SplineSet
460 966 m 2
 478 983 499 992 522 992 c 0
 545 992 566 983 584 966 c 2
 927 661 l 2
 946 643 957 620 957 592 c 2
 957 154 l 2
 957 127 947 104 929 86 c 0
 911 68 889 59 862 59 c 2
 708 59 l 2
 681 59 659 68 642 86 c 0
 625 104 617 127 617 154 c 2
 617 371 l 2
 617 380 612 386 606 392 c 0
 600 398 593 402 584 402 c 2
 460 402 l 2
 451 402 443 398 437 392 c 0
 431 386 427 380 427 371 c 2
 427 154 l 2
 427 152 427 149 427 147 c 0
 427 124 420 103 403 86 c 0
 385 68 362 59 335 59 c 2
 182 59 l 2
 155 59 132 68 114 86 c 0
 96 104 87 127 87 154 c 2
 87 592 l 2
 87 620 97 643 116 661 c 2
 460 966 l 2
541 922 m 2
 536 927 531 930 522 930 c 0
 513 930 506 927 501 922 c 2
 159 614 l 2
 153 608 149 601 149 592 c 2
 149 154 l 2
 149 144 151 136 157 130 c 0
 163 124 172 121 182 121 c 2
 335 121 l 2
 344 121 352 124 358 130 c 0
 364 136 368 144 368 154 c 2
 368 371 l 2
 368 398 376 419 393 437 c 0
 410 455 433 464 460 464 c 2
 584 464 l 2
 611 463 633 453 650 436 c 0
 667 419 678 398 679 371 c 2
 679 154 l 2
 679 144 681 136 687 130 c 0
 693 124 699 121 708 121 c 2
 865 121 l 2
 874 121 879 124 885 130 c 0
 891 136 895 144 895 154 c 2
 895 592 l 2
 895 601 890 608 884 614 c 2
 541 922 l 2
EndSplineSet
EndChar

StartChar: NumberBaseConverter
Encoding: 274 280 18
Width: 1024
Flags: H
LayerCount: 2
Fore
SplineSet
227 882 m 2
 200 882 177 873 158 854 c 0
 139 835 130 813 130 786 c 2
 130 216 l 2
 130 189 139 167 158 148 c 0
 177 129 200 120 227 120 c 2
 798 120 l 2
 823 120 845 129 864 148 c 0
 883 167 892 189 892 216 c 2
 892 788 l 2
 892 813 883 835 864 854 c 0
 845 873 823 882 796 882 c 2
 227 882 l 2
66 788 m 2
 66 831 83 867 114 898 c 0
 145 929 181 946 224 946 c 2
 798 946 l 2
 841 946 878 929 909 898 c 0
 940 867 956 830 956 786 c 2
 956 216 l 2
 956 172 940 135 909 104 c 0
 878 73 840 56 796 56 c 2
 227 56 l 2
 183 56 145 73 114 104 c 0
 83 135 66 171 66 214 c 2
 66 788 l 2
420 437 m 1
 577 437 l 1
 602 565 l 1
 445 565 l 1
 420 437 l 1
455 755 m 0
 463 754 469 749 474 741 c 0
 479 733 480 725 479 717 c 2
 460 628 l 1
 618 628 l 1
 638 730 l 2
 639 738 644 745 652 750 c 0
 660 755 669 756 677 755 c 0
 685 754 691 749 696 741 c 0
 701 733 703 725 702 717 c 2
 681 628 l 1
 734 628 l 2
 742 628 750 625 756 619 c 0
 762 613 766 605 766 596 c 0
 766 587 762 580 756 574 c 0
 750 568 742 565 734 565 c 2
 668 565 l 1
 641 437 l 1
 702 437 l 2
 710 437 717 435 723 429 c 0
 729 423 732 415 732 406 c 0
 732 397 729 389 723 383 c 0
 717 377 710 374 702 374 c 2
 628 374 l 1
 605 273 l 2
 604 261 597 254 585 249 c 0
 581 247 577 246 573 246 c 0
 566 246 559 249 553 254 c 0
 546 260 543 268 543 276 c 0
 543 279 544 283 545 286 c 2
 562 374 l 1
 404 374 l 1
 385 273 l 2
 384 265 378 257 370 252 c 0
 362 247 355 246 347 247 c 0
 339 248 331 253 326 261 c 0
 321 269 320 278 321 286 c 2
 341 374 l 1
 290 374 l 2
 280 374 273 377 267 383 c 0
 261 389 257 397 257 406 c 0
 257 415 261 423 267 429 c 0
 273 435 280 437 288 437 c 2
 354 437 l 1
 381 565 l 1
 321 565 l 2
 313 565 305 568 299 574 c 0
 293 580 290 587 290 596 c 0
 290 605 293 613 299 619 c 0
 305 625 313 628 321 628 c 2
 394 628 l 1
 417 730 l 2
 418 738 423 745 431 750 c 0
 439 755 447 756 455 755 c 0
EndSplineSet
EndChar

StartChar: Timestamp
Encoding: 275 281 19
Width: 1024
Flags: H
LayerCount: 2
Fore
SplineSet
512 946 m 0
 520 946 528 944 535 938 c 0
 542 932 544 924 544 916 c 2
 547 847 l 2
 547 839 544 831 537 824 c 0
 530 817 522 814 514 813 c 0
 506 812 498 815 491 820 c 0
 484 825 481 832 481 842 c 2
 478 912 l 2
 478 920 482 929 489 936 c 0
 496 943 504 946 512 946 c 0
826 814 m 0
 833 808 836 802 836 794 c 0
 836 786 834 778 829 772 c 2
 778 721 l 2
 772 715 765 712 757 711 c 0
 749 710 741 712 734 718 c 0
 727 724 722 732 721 740 c 0
 720 748 724 757 730 764 c 2
 778 814 l 2
 785 821 793 825 802 825 c 0
 811 825 820 821 826 814 c 0
242 819 m 1
 245 814 l 1
 293 768 l 2
 299 762 302 754 302 745 c 0
 302 736 299 729 293 722 c 0
 287 715 280 712 272 711 c 0
 264 710 256 711 249 716 c 2
 198 768 l 2
 192 774 189 781 189 790 c 0
 189 799 192 806 198 813 c 0
 204 820 211 823 219 824 c 0
 227 825 235 824 242 819 c 1
170 535 m 2
 178 535 185 533 192 526 c 0
 199 519 202 512 203 504 c 0
 204 496 202 488 196 481 c 0
 190 474 182 471 174 470 c 2
 102 470 l 2
 94 470 87 473 80 479 c 0
 73 485 70 492 69 500 c 0
 68 508 71 516 77 523 c 0
 83 530 89 534 97 535 c 2
 170 535 l 2
923 533 m 2
 931 533 938 531 945 525 c 0
 952 519 955 512 956 504 c 0
 957 496 954 487 948 480 c 0
 942 473 936 468 928 467 c 2
 855 467 l 2
 847 467 840 470 833 476 c 0
 826 482 823 489 822 498 c 0
 821 507 823 515 829 522 c 0
 835 529 843 532 851 533 c 2
 923 533 l 2
478 636 m 1
 486 635 493 631 500 626 c 0
 507 621 511 614 512 606 c 2
 512 502 l 1
 567 502 l 2
 575 502 584 500 591 494 c 0
 598 488 601 480 602 472 c 2
 602 467 l 2
 602 459 599 452 593 446 c 0
 587 440 580 437 572 436 c 2
 478 436 l 2
 470 436 464 438 458 443 c 0
 452 448 448 456 447 464 c 2
 447 601 l 2
 447 609 449 618 456 625 c 0
 463 632 470 635 478 634 c 1
 478 636 l 1
512 680 m 0
 462 680 421 663 386 628 c 0
 351 593 334 552 334 502 c 0
 334 452 351 411 386 376 c 0
 421 341 462 324 512 324 c 0
 562 324 604 341 639 376 c 0
 674 411 691 452 691 502 c 0
 691 552 674 593 639 628 c 0
 604 663 562 680 512 680 c 0
512 746 m 0
 556 746 598 736 635 714 c 0
 672 692 702 662 724 625 c 0
 746 588 757 546 757 502 c 0
 757 458 746 416 724 379 c 0
 702 342 672 312 635 290 c 0
 598 268 556 258 512 258 c 0
 468 258 427 268 390 290 c 0
 353 312 323 342 301 379 c 0
 279 416 268 458 268 502 c 0
 268 546 279 588 301 625 c 0
 323 662 353 692 390 714 c 0
 427 736 468 746 512 746 c 0
293 283 m 0
 299 277 302 269 302 260 c 0
 302 251 299 243 293 236 c 2
 245 189 l 2
 239 181 230 178 221 178 c 0
 218 178 215 178 212 179 c 0
 199 182 191 191 189 204 c 0
 189 207 188 210 188 212 c 0
 188 221 192 230 198 236 c 2
 245 283 l 2
 252 290 260 294 269 294 c 0
 278 294 286 290 293 283 c 0
778 283 m 2
 826 236 l 2
 833 229 836 221 836 213 c 0
 836 205 834 198 827 191 c 0
 820 184 811 180 802 180 c 0
 793 180 785 183 778 189 c 2
 732 236 l 2
 724 242 720 250 720 259 c 0
 720 262 720 265 721 268 c 0
 724 281 734 289 747 292 c 0
 751 293 754 294 757 294 c 0
 765 294 772 290 778 283 c 2
512 192 m 0
 520 192 528 188 535 182 c 0
 542 176 544 170 544 162 c 2
 547 91 l 2
 547 83 544 76 537 69 c 0
 530 62 522 60 514 59 c 0
 506 58 498 59 491 65 c 0
 484 71 479 79 478 87 c 2
 478 157 l 2
 478 167 481 174 488 181 c 0
 495 188 502 192 512 192 c 0
EndSplineSet
EndChar

StartChar: GZipEncoderDecoder
Encoding: 276 288 20
Width: 1024
Flags: H
LayerCount: 2
Fore
SplineSet
345 842 m 1
 200 842 l 2
 178 842 160 833 144 820 c 0
 128 807 119 788 117 766 c 2
 117 704 l 1
 341 704 l 2
 347 703 351 704 356 709 c 2
 429 786 l 1
 362 837 l 2
 357 838 354 841 349 842 c 2
 345 842 l 1
721 264 m 1
 750 264 l 2
 757 263 763 260 768 255 c 0
 773 250 776 243 776 236 c 0
 776 229 773 222 768 217 c 0
 763 212 757 210 750 210 c 2
 721 210 l 1
 721 182 l 1
 805 182 l 2
 826 182 842 189 858 202 c 0
 874 215 884 234 886 256 c 2
 886 676 l 2
 886 697 879 715 866 731 c 0
 853 747 833 757 811 758 c 2
 776 760 l 1
 776 595 l 2
 776 586 773 579 768 574 c 0
 763 569 757 566 750 566 c 2
 721 566 l 1
 721 430 l 1
 750 430 l 2
 757 430 763 427 768 421 c 0
 773 415 776 409 776 402 c 0
 776 395 773 387 768 381 c 0
 763 375 757 372 750 372 c 2
 721 372 l 1
 721 264 l 1
612 760 m 1
 479 760 l 1
 400 674 l 2
 385 659 368 651 349 650 c 2
 117 650 l 1
 117 264 l 2
 117 242 125 224 138 208 c 0
 151 192 169 184 191 182 c 2
 666 182 l 1
 666 291 l 1
 640 291 l 2
 631 291 624 293 619 298 c 0
 614 303 612 310 612 319 c 0
 612 328 614 333 619 338 c 0
 624 343 631 346 640 346 c 2
 666 346 l 1
 666 456 l 1
 640 456 l 2
 631 456 624 459 619 464 c 0
 614 469 612 474 612 483 c 0
 612 492 614 499 619 504 c 0
 624 509 630 511 637 511 c 2
 666 511 l 1
 666 566 l 1
 640 566 l 2
 631 566 624 569 619 574 c 0
 614 579 612 585 612 592 c 2
 612 760 l 1
721 760 m 1
 666 760 l 1
 666 622 l 1
 721 622 l 1
 721 760 l 1
345 896 m 2
 360 896 374 892 387 885 c 2
 484 815 l 1
 805 815 l 2
 839 815 868 803 894 780 c 0
 920 757 934 727 939 693 c 1
 941 685 l 1
 941 264 l 2
 941 228 929 198 903 171 c 0
 877 144 848 128 813 126 c 2
 200 126 l 2
 164 126 132 137 105 163 c 0
 78 189 63 218 61 253 c 2
 61 760 l 2
 61 795 73 826 99 853 c 0
 125 880 154 894 189 896 c 2
 345 896 l 2
EndSplineSet
EndChar

StartChar: UrlEncoderDecoder
Encoding: 277 289 21
Width: 1024
Flags: H
LayerCount: 2
Fore
SplineSet
735 721 m 2
 797 721 851 701 895 658 c 0
 941 614 963 560 963 495 c 0
 963 437 942 384 902 340 c 0
 861 294 809 271 747 268 c 2
 621 268 l 2
 614 268 608 271 602 277 c 0
 596 283 594 287 593 294 c 0
 592 301 595 308 599 314 c 0
 603 320 610 324 617 325 c 2
 735 325 l 2
 781 325 819 342 853 373 c 0
 888 406 905 445 905 495 c 0
 905 538 891 577 861 609 c 0
 830 643 793 662 747 665 c 2
 621 665 l 2
 614 665 608 667 602 673 c 0
 596 679 594 685 593 692 c 0
 592 699 595 705 599 711 c 0
 603 717 610 720 617 721 c 2
 735 721 l 2
395 721 m 2
 402 721 408 720 414 714 c 0
 420 708 422 703 423 696 c 0
 424 689 421 683 417 677 c 0
 413 671 407 666 400 665 c 2
 281 665 l 2
 235 665 199 649 165 618 c 0
 130 585 112 545 112 495 c 0
 112 452 126 412 156 380 c 0
 187 346 225 328 271 325 c 2
 395 325 l 2
 402 325 408 322 414 316 c 0
 420 310 422 306 423 299 c 0
 424 292 421 286 417 280 c 0
 413 274 407 269 400 268 c 2
 281 268 l 2
 219 268 167 290 123 333 c 0
 77 377 55 430 55 495 c 0
 55 553 76 605 116 649 c 0
 157 695 207 718 268 721 c 2
 395 721 l 2
735 525 m 2
 742 525 748 522 754 516 c 0
 760 510 762 504 763 497 c 0
 764 490 763 484 759 478 c 0
 755 472 746 468 739 467 c 2
 281 467 l 2
 274 466 268 467 262 473 c 0
 256 479 254 485 253 492 c 0
 252 499 255 505 259 511 c 0
 263 517 270 521 277 522 c 2
 735 525 l 2
EndSplineSet
EndChar

StartChar: XmlFormatter
Encoding: 278 290 22
Width: 1024
Flags: H
LayerCount: 2
Fore
SplineSet
760 239 m 1
 754 243 752 252 752 259 c 0
 752 266 754 273 758 279 c 2
 915 464 l 1
 758 647 l 2
 754 653 752 660 752 667 c 0
 752 674 754 681 760 687 c 0
 766 693 775 695 783 694 c 0
 791 693 799 690 803 684 c 2
 976 483 l 2
 980 477 983 470 983 463 c 0
 983 456 980 449 976 443 c 2
 803 242 l 2
 799 236 791 233 783 232 c 0
 775 231 766 234 760 238 c 1
 760 239 l 1
279 716 m 0
 285 712 289 705 289 697 c 0
 289 689 286 680 282 674 c 2
 124 491 l 1
 282 310 l 2
 286 304 289 296 288 289 c 0
 287 282 284 275 278 269 c 0
 272 263 264 261 257 262 c 0
 250 263 242 266 238 270 c 2
 65 473 l 2
 61 477 58 484 58 491 c 0
 58 498 61 507 65 511 c 2
 238 714 l 2
 242 720 250 723 258 723 c 0
 266 723 273 720 279 716 c 0
691 857 m 2
 402 106 l 2
 399 95 391 88 380 87 c 0
 369 86 359 89 352 97 c 0
 345 105 346 116 350 127 c 2
 638 878 l 2
 641 885 646 891 653 894 c 0
 660 897 668 897 675 894 c 0
 682 891 688 887 691 880 c 0
 694 873 694 864 691 857 c 2
EndSplineSet
EndChar

StartChar: Formatters
Encoding: 279 291 23
Width: 1024
Flags: H
LayerCount: 2
Fore
SplineSet
118 629 m 2
 201 546 l 2
 205 542 208 534 208 526 c 0
 208 518 205 510 201 506 c 2
 118 423 l 2
 111 416 101 413 90 416 c 0
 79 419 74 426 71 437 c 0
 68 448 72 458 79 465 c 2
 139 527 l 1
 79 587 l 2
 73 593 70 601 70 608 c 0
 70 615 71 621 77 627 c 0
 83 633 90 636 98 636 c 0
 106 636 114 633 118 629 c 2
329 267 m 2
 675 267 l 2
 682 267 687 265 693 259 c 0
 699 253 702 247 702 239 c 0
 702 231 699 224 693 218 c 0
 687 212 682 209 675 209 c 2
 328 209 l 2
 321 209 314 212 308 218 c 0
 302 224 299 231 299 239 c 0
 299 247 302 253 308 259 c 0
 314 265 319 267 329 267 c 2
299 527 m 2
 299 534 302 541 308 547 c 0
 314 553 321 554 328 554 c 2
 962 554 l 2
 969 554 976 553 982 547 c 0
 988 541 989 534 989 526 c 0
 989 518 988 511 982 505 c 0
 976 499 969 498 962 498 c 2
 329 498 l 2
 319 498 314 499 308 505 c 0
 302 511 299 518 299 525 c 2
 299 527 l 2
299 814 m 2
 299 821 302 828 308 834 c 0
 314 840 321 843 328 843 c 2
 789 843 l 2
 796 843 803 840 809 834 c 0
 815 828 817 821 817 813 c 0
 817 805 815 799 809 793 c 0
 803 787 796 785 789 785 c 2
 329 785 l 2
 319 785 314 787 308 793 c 0
 302 799 299 805 299 812 c 2
 299 814 l 2
EndSplineSet
EndChar

StartChar: ChecksumGenerator
Encoding: 280 292 24
Width: 1024
Flags: H
LayerCount: 2
Fore
SplineSet
864 338 m 1
 761 338 l 2
 738 338 718 329 703 315 c 0
 688 301 679 283 678 260 c 2
 678 152 l 1
 864 338 l 1
831 808 m 2
 591 808 l 1
 584 833 574 858 560 881 c 1
 831 881 l 2
 873 881 910 866 940 836 c 0
 970 806 985 768 985 726 c 2
 985 401 l 2
 984 373 974 347 954 326 c 2
 689 60 l 2
 668 39 643 29 615 29 c 2
 288 29 l 2
 246 30 210 46 180 76 c 0
 150 106 133 141 133 183 c 2
 133 454 l 1
 156 440 181 430 206 423 c 1
 206 183 l 2
 206 160 215 140 230 125 c 0
 245 110 265 101 288 101 c 2
 607 101 l 1
 607 253 l 2
 607 294 620 330 648 360 c 0
 676 390 711 406 752 407 c 2
 913 407 l 1
 913 726 l 2
 913 749 904 769 889 784 c 0
 874 799 854 808 831 808 c 2
325 691 m 1
 441 691 l 2
 447 691 453 692 457 696 c 0
 461 700 464 708 464 715 c 0
 464 722 461 728 457 732 c 0
 453 736 447 737 441 737 c 2
 325 737 l 1
 325 855 l 2
 325 861 322 867 318 871 c 0
 314 875 308 878 301 878 c 0
 294 878 288 875 284 871 c 0
 280 867 277 861 277 855 c 2
 277 737 l 1
 159 737 l 2
 153 737 148 736 142 732 c 0
 136 728 133 722 133 715 c 0
 133 708 136 700 142 696 c 0
 148 692 153 691 159 691 c 2
 277 691 l 1
 277 573 l 2
 277 567 280 561 284 557 c 0
 288 553 294 550 301 550 c 0
 308 550 314 553 318 557 c 0
 322 561 325 567 325 573 c 2
 325 691 l 1
560 715 m 0
 560 667 548 623 524 584 c 0
 500 545 469 514 430 490 c 0
 391 466 349 454 301 454 c 0
 253 454 209 466 170 490 c 0
 131 514 100 545 76 584 c 0
 52 623 40 667 40 715 c 0
 40 763 52 805 76 844 c 0
 100 883 131 914 170 938 c 0
 209 962 253 974 301 974 c 0
 349 974 391 962 430 938 c 0
 469 914 500 883 524 844 c 0
 548 805 560 761 560 715 c 0
EndSplineSet
EndChar

StartChar: HashGenerator
Encoding: 281 293 25
Width: 1024
Flags: H
LayerCount: 2
Fore
SplineSet
507 1002 m 0
 614 998 703 968 775 912 c 0
 782 906 788 896 789 886 c 0
 790 876 788 866 782 859 c 0
 776 851 768 846 758 845 c 0
 748 844 738 846 731 852 c 0
 672 898 596 926 503 930 c 0
 497 930 491 930 485 930 c 0
 406 930 336 913 275 881 c 0
 265 877 257 875 247 878 c 0
 237 881 232 885 226 893 c 0
 220 901 217 910 220 920 c 0
 223 930 229 938 239 944 c 0
 307 983 385 1002 478 1002 c 0
 488 1002 497 1002 507 1002 c 0
189 858 m 0
 195 851 199 841 198 831 c 0
 197 821 192 812 185 806 c 0
 172 795 160 784 146 767 c 0
 132 750 117 729 103 706 c 0
 97 693 88 688 74 688 c 0
 60 688 49 693 42 706 c 0
 38 712 36 718 36 724 c 0
 36 730 38 735 42 741 c 0
 56 768 71 792 89 813 c 0
 106 830 124 845 139 859 c 0
 145 866 153 872 163 871 c 0
 173 870 182 866 189 858 c 0
521 858 m 0
 610 857 697 817 784 738 c 0
 871 659 925 554 943 419 c 0
 944 416 944 414 944 411 c 0
 944 401 940 392 931 385 c 0
 924 380 916 378 909 378 c 0
 904 378 899 379 894 381 c 0
 881 387 873 395 872 409 c 0
 857 524 812 618 737 684 c 0
 662 750 588 785 519 786 c 0
 509 786 502 789 495 796 c 0
 488 803 485 811 485 821 c 0
 485 831 488 840 495 847 c 0
 502 854 510 858 521 858 c 0
407 820 m 0
 411 810 413 802 409 792 c 0
 405 782 399 776 389 772 c 0
 300 731 236 676 192 601 c 0
 165 556 149 506 139 454 c 0
 135 427 132 400 132 373 c 0
 132 350 133 329 136 308 c 0
 137 297 135 287 129 280 c 0
 123 273 115 267 105 266 c 0
 95 265 85 267 78 273 c 0
 70 279 65 287 64 298 c 0
 61 323 58 350 58 375 c 0
 58 405 61 434 67 465 c 0
 80 527 99 585 129 637 c 0
 180 726 257 792 360 838 c 0
 370 841 376 841 386 838 c 0
 396 835 403 830 407 820 c 0
768 454 m 0
 779 454 787 450 794 443 c 0
 801 436 806 429 807 419 c 0
 808 389 815 365 828 347 c 0
 838 332 846 320 856 316 c 1
 858 316 l 2
 868 313 875 307 879 299 c 0
 883 291 885 281 882 271 c 0
 879 261 871 253 863 249 c 0
 855 245 847 244 837 247 c 0
 810 254 788 274 768 305 c 0
 748 336 735 373 732 415 c 0
 732 426 737 435 744 442 c 0
 751 449 758 453 768 454 c 0
324 660 m 0
 373 697 428 718 489 719 c 0
 492 719 493 719 496 719 c 0
 554 719 604 703 649 675 c 0
 695 645 730 611 751 574 c 0
 755 564 758 557 755 547 c 0
 752 537 746 531 738 525 c 0
 730 519 721 517 711 520 c 0
 701 523 693 527 689 537 c 0
 672 565 646 590 611 613 c 0
 577 634 539 646 497 646 c 0
 494 646 493 646 490 646 c 0
 445 645 404 630 367 602 c 0
 330 574 302 537 284 489 c 0
 270 451 262 411 262 370 c 0
 262 359 263 348 264 337 c 0
 270 278 289 218 320 156 c 0
 323 148 323 139 320 129 c 0
 317 119 310 113 302 109 c 0
 294 105 285 105 275 108 c 0
 265 111 258 117 254 124 c 0
 219 193 198 261 192 329 c 0
 191 344 191 359 191 373 c 0
 191 424 198 471 215 516 c 0
 238 577 275 625 324 660 c 0
503 415 m 0
 514 416 523 413 530 406 c 0
 537 399 540 391 540 380 c 0
 543 304 566 235 610 173 c 2
 635 140 l 2
 641 132 643 125 642 115 c 0
 641 105 637 97 630 91 c 0
 623 85 614 83 604 83 c 0
 594 83 588 85 582 91 c 2
 564 115 l 2
 503 192 471 280 468 377 c 0
 468 388 472 397 479 404 c 0
 486 411 493 415 503 415 c 0
618 527 m 0
 641 502 659 467 672 419 c 2
 685 352 l 2
 689 332 693 318 697 308 c 0
 711 276 738 242 775 208 c 0
 784 200 787 192 787 182 c 0
 787 179 787 176 786 173 c 0
 783 159 775 150 761 146 c 0
 757 145 753 144 749 144 c 0
 740 144 732 148 725 155 c 0
 680 196 649 235 631 277 c 0
 625 292 618 312 614 335 c 2
 603 391 l 2
 595 432 582 460 565 477 c 0
 551 491 529 499 504 499 c 0
 500 499 497 499 493 499 c 0
 462 496 442 487 431 470 c 0
 417 447 409 418 406 384 c 0
 406 378 405 373 405 367 c 0
 405 339 410 310 420 280 c 0
 435 222 457 165 485 112 c 0
 489 106 491 100 491 94 c 0
 491 88 489 82 485 76 c 0
 479 64 468 57 455 57 c 0
 454 57 452 57 451 57 c 0
 437 58 426 66 420 80 c 0
 390 138 367 197 350 259 c 0
 339 296 333 331 333 366 c 0
 333 376 333 385 334 395 c 0
 338 439 350 477 368 508 c 0
 383 533 407 550 438 561 c 0
 458 568 477 571 497 571 c 0
 508 571 521 569 534 568 c 0
 568 562 595 548 618 527 c 0
EndSplineSet
EndChar

StartChar: Generators
Encoding: 282 294 26
Width: 1024
Flags: H
LayerCount: 2
Fore
SplineSet
312 758 m 2
 298 758 284 753 272 741 c 0
 260 729 255 716 255 702 c 2
 255 338 l 2
 255 321 260 309 270 299 c 2
 397 165 l 1
 700 165 l 1
 737 257 l 2
 743 271 752 279 769 279 c 2
 838 279 l 2
 855 279 868 284 879 295 c 0
 890 306 895 319 895 336 c 2
 895 585 l 2
 895 602 890 615 879 627 c 0
 868 639 855 645 838 645 c 2
 769 645 l 2
 752 645 743 652 737 665 c 2
 700 758 l 1
 312 758 l 2
403 918 m 0
 413 918 422 915 429 907 c 0
 436 899 439 893 439 884 c 2
 439 827 l 1
 529 827 l 1
 529 884 l 2
 529 893 532 899 540 907 c 0
 548 915 554 918 564 918 c 0
 574 918 582 915 589 907 c 0
 596 899 599 893 599 884 c 2
 599 827 l 1
 724 827 l 2
 741 827 750 819 754 805 c 2
 791 713 l 1
 838 713 l 2
 873 713 902 701 926 676 c 0
 950 651 962 620 962 585 c 2
 962 336 l 2
 962 301 950 271 926 247 c 0
 902 223 873 210 838 210 c 2
 791 210 l 1
 754 117 l 2
 750 104 741 97 724 97 c 2
 381 97 l 2
 371 97 364 100 356 106 c 2
 222 252 l 2
 199 275 187 305 187 338 c 2
 187 485 l 1
 119 485 l 1
 119 312 l 2
 119 303 116 296 109 289 c 0
 102 282 95 279 85 279 c 0
 75 279 68 282 61 289 c 0
 54 296 51 303 51 312 c 2
 51 702 l 2
 51 711 54 717 61 724 c 0
 68 731 75 734 85 734 c 0
 95 734 102 731 109 724 c 0
 116 717 119 711 119 702 c 2
 119 552 l 1
 187 552 l 1
 187 702 l 2
 187 735 199 764 224 789 c 0
 249 814 279 827 312 827 c 2
 371 827 l 1
 371 884 l 2
 371 893 373 899 380 907 c 0
 387 915 394 918 403 918 c 0
403 645 m 0
 413 645 422 642 429 634 c 0
 436 626 439 618 439 609 c 2
 439 496 l 2
 439 479 444 466 455 455 c 0
 466 444 479 439 496 439 c 2
 529 439 l 1
 529 609 l 2
 529 618 532 626 540 634 c 0
 548 642 554 645 564 645 c 0
 574 645 582 642 589 634 c 0
 596 626 599 618 599 609 c 2
 599 439 l 1
 791 439 l 2
 801 439 810 436 817 429 c 0
 824 422 827 414 827 404 c 0
 827 394 824 387 817 379 c 0
 810 371 801 368 791 368 c 2
 496 368 l 2
 461 368 431 381 407 406 c 0
 383 431 371 461 371 496 c 2
 371 609 l 2
 371 618 373 626 380 634 c 0
 387 642 394 645 403 645 c 0
EndSplineSet
EndChar

StartChar: ImageConverter
Encoding: 283 295 27
Width: 1024
Flags: H
LayerCount: 2
Fore
SplineSet
693 513 m 0
 670 513 650 522 635 537 c 0
 618 554 611 573 611 596 c 0
 611 619 618 638 635 655 c 0
 652 672 670 679 693 679 c 0
 716 679 734 672 751 655 c 0
 768 638 776 619 776 596 c 0
 776 573 768 554 751 537 c 0
 736 522 716 513 693 513 c 0
721 597 m 2
 721 605 718 611 713 616 c 0
 708 621 701 624 693 624 c 0
 685 624 678 621 673 616 c 0
 668 611 666 604 666 596 c 0
 666 588 668 582 673 577 c 0
 678 572 685 568 693 568 c 0
 701 568 708 572 713 577 c 0
 718 582 721 587 721 595 c 2
 721 597 l 2
335 127 m 2
 776 127 l 2
 796 127 813 133 830 143 c 1
 575 394 l 2
 569 400 564 403 556 403 c 0
 548 403 542 400 536 394 c 2
 280 143 l 1
 297 133 315 127 335 127 c 2
169 238 m 2
 169 458 l 1
 225 458 l 1
 225 238 l 2
 225 218 231 199 241 182 c 1
 499 434 l 2
 516 451 534 458 556 458 c 0
 578 458 595 451 612 434 c 2
 870 182 l 1
 880 199 887 218 887 238 c 2
 887 679 l 2
 887 710 877 735 855 757 c 0
 833 779 807 789 776 789 c 2
 611 789 l 1
 611 843 l 1
 776 843 l 2
 822 843 861 827 893 795 c 0
 925 763 941 725 941 679 c 2
 941 238 l 2
 941 192 925 153 893 121 c 0
 861 89 822 73 776 73 c 2
 335 73 l 2
 289 73 250 89 218 121 c 0
 186 153 169 192 169 238 c 2
169 818 m 2
 169 815 l 2
 169 807 173 801 178 796 c 0
 183 791 190 789 199 789 c 2
 419 789 l 2
 427 789 432 791 437 796 c 0
 442 801 445 809 445 817 c 0
 445 825 442 831 437 836 c 0
 432 841 427 843 419 843 c 2
 199 843 l 2
 190 843 183 841 178 836 c 0
 173 831 169 826 169 818 c 2
199 679 m 2
 190 679 183 676 178 671 c 0
 173 666 169 659 169 651 c 0
 169 643 173 637 178 632 c 0
 183 627 190 624 199 624 c 2
 419 624 l 2
 427 624 432 627 437 632 c 0
 442 637 445 643 445 651 c 0
 445 659 442 666 437 671 c 0
 432 676 427 679 419 679 c 2
 199 679 l 2
169 954 m 2
 445 954 l 2
 476 954 502 945 524 923 c 0
 546 901 556 874 556 843 c 2
 556 624 l 2
 556 593 546 567 524 545 c 0
 502 523 476 513 445 513 c 2
 169 513 l 2
 138 513 113 523 91 545 c 0
 69 567 60 593 60 624 c 2
 60 843 l 2
 60 874 69 901 91 923 c 0
 113 945 138 954 169 954 c 2
EndSplineSet
EndChar

StartChar: PngJpgCompressor
Encoding: 284 296 28
Width: 1024
Flags: H
LayerCount: 2
Fore
SplineSet
761 665 m 0
 761 638 751 616 732 597 c 0
 713 578 692 570 665 570 c 0
 638 570 616 578 597 597 c 0
 578 616 570 638 570 665 c 0
 570 692 578 713 597 732 c 0
 616 751 638 760 665 760 c 0
 692 760 713 751 732 732 c 0
 751 713 761 692 761 665 c 0
252 125 m 2
 761 125 l 2
 784 125 804 131 823 143 c 1
 529 432 l 2
 522 439 514 442 506 442 c 0
 498 442 490 439 483 432 c 2
 189 143 l 1
 208 131 229 125 252 125 c 2
252 887 m 2
 216 887 186 874 162 850 c 0
 138 826 125 796 125 760 c 2
 125 252 l 2
 125 229 132 207 144 186 c 1
 440 478 l 2
 459 497 481 506 506 506 c 0
 531 506 553 497 572 478 c 2
 869 189 l 1
 881 208 887 229 887 252 c 2
 887 760 l 2
 887 796 874 826 850 850 c 0
 826 874 797 887 761 887 c 2
 252 887 l 2
61 760 m 2
 61 812 81 858 118 895 c 0
 155 932 200 951 252 951 c 2
 761 951 l 2
 813 951 858 932 895 895 c 0
 932 858 951 812 951 760 c 2
 951 252 l 2
 951 200 932 154 895 117 c 0
 858 80 813 61 761 61 c 2
 252 61 l 2
 200 61 155 80 118 117 c 0
 81 154 61 200 61 252 c 2
 61 760 l 2
697 666 m 2
 697 674 694 682 688 688 c 0
 682 694 674 697 665 697 c 0
 656 697 649 694 643 688 c 0
 637 682 633 674 633 665 c 0
 633 656 637 647 643 641 c 0
 649 635 656 633 665 633 c 0
 674 633 682 635 688 641 c 0
 694 647 697 655 697 663 c 2
 697 666 l 2
EndSplineSet
EndChar

StartChar: GraphicTools
Encoding: 285 297 29
Width: 1024
Flags: H
LayerCount: 2
Fore
SplineSet
640 40 m 2
 341 40 l 2
 286 40 235 53 189 80 c 0
 143 107 107 143 80 189 c 0
 53 235 40 286 40 341 c 2
 40 640 l 2
 40 701 61 750 106 789 c 1
 106 341 l 2
 106 275 130 220 175 175 c 0
 220 130 275 106 341 106 c 2
 789 106 l 1
 750 61 701 40 640 40 c 2
839 258 m 1
 607 493 l 2
 596 501 587 506 574 506 c 0
 561 506 549 501 538 493 c 2
 306 258 l 1
 326 245 349 240 374 240 c 2
 772 240 l 2
 797 240 819 245 839 258 c 1
374 906 m 2
 337 906 303 891 278 866 c 0
 253 841 240 809 240 772 c 2
 240 372 l 2
 240 347 245 326 258 306 c 1
 493 538 l 2
 514 561 542 572 574 572 c 0
 606 572 631 561 652 538 c 2
 887 306 l 1
 900 326 906 347 906 372 c 2
 906 772 l 2
 906 809 893 841 868 866 c 0
 843 891 809 906 772 906 c 2
 374 906 l 2
174 772 m 2
 174 827 193 875 232 914 c 0
 271 953 319 972 374 972 c 2
 772 972 l 2
 827 972 875 953 914 914 c 0
 953 875 972 827 972 772 c 2
 972 372 l 2
 972 317 953 271 914 232 c 0
 875 193 827 174 772 174 c 2
 374 174 l 2
 319 174 271 193 232 232 c 0
 193 271 174 317 174 372 c 2
 174 772 l 2
405 673 m 0
 387 673 373 680 360 693 c 0
 347 706 341 722 341 740 c 0
 341 758 347 773 360 786 c 0
 373 799 387 804 405 804 c 0
 406 804 409 804 410 804 c 0
 434 804 454 794 465 773 c 0
 471 762 475 751 475 740 c 0
 475 729 471 717 465 706 c 0
 454 685 434 673 409 673 c 0
 408 673 406 673 405 673 c 0
EndSplineSet
EndChar

StartChar: StringEscapeUnescape
Encoding: 286 304 30
Width: 1024
Flags: H
LayerCount: 2
Fore
SplineSet
213 796 m 2
 181 796 155 786 132 763 c 0
 109 740 97 714 97 682 c 2
 97 334 l 2
 97 302 109 276 132 253 c 0
 155 230 181 218 213 218 c 2
 792 218 l 2
 824 218 850 230 873 253 c 0
 896 276 908 302 908 334 c 2
 908 682 l 2
 908 714 896 740 873 763 c 0
 850 786 824 796 792 796 c 2
 213 796 l 2
40 682 m 2
 40 729 57 770 91 804 c 0
 125 838 166 855 213 855 c 2
 792 855 l 2
 839 855 880 838 914 804 c 0
 948 770 965 729 965 682 c 2
 965 334 l 2
 965 287 948 246 914 212 c 0
 880 178 839 161 792 161 c 2
 213 161 l 2
 166 161 125 178 91 212 c 0
 57 246 40 287 40 334 c 2
 40 682 l 2
532 682 m 1
 532 334 l 1
 561 334 l 2
 569 334 575 332 581 327 c 0
 587 322 590 314 589 305 c 0
 588 296 585 290 580 285 c 0
 575 280 569 277 561 277 c 2
 444 277 l 2
 436 277 430 280 425 285 c 0
 420 290 417 296 416 305 c 0
 415 314 418 322 424 327 c 0
 430 332 436 334 444 334 c 2
 475 334 l 1
 475 682 l 1
 387 682 l 1
 387 651 l 2
 387 643 384 637 379 632 c 0
 374 627 367 623 358 623 c 0
 349 623 342 627 337 632 c 0
 332 637 330 644 330 653 c 2
 330 711 l 2
 330 719 332 726 337 731 c 0
 342 736 350 739 359 739 c 2
 649 739 l 2
 657 739 663 736 668 731 c 0
 673 726 675 719 675 711 c 2
 675 651 l 2
 675 643 673 637 668 632 c 0
 663 627 656 623 647 623 c 0
 638 623 631 627 626 632 c 0
 621 637 618 644 618 653 c 2
 618 682 l 1
 532 682 l 1
EndSplineSet
EndChar

StartChar: StringUtilities
Encoding: 287 305 31
Width: 1024
Flags: H
LayerCount: 2
Fore
SplineSet
103 924 m 2
 103 937 107 948 115 956 c 0
 123 964 135 969 148 969 c 2
 883 969 l 2
 896 969 908 964 916 956 c 0
 924 948 928 937 928 924 c 2
 928 804 l 2
 928 793 924 782 916 774 c 0
 908 766 898 762 885 762 c 0
 872 762 860 766 852 774 c 0
 844 782 840 793 840 804 c 2
 840 879 l 1
 561 879 l 1
 561 114 l 1
 648 114 l 2
 659 114 669 110 679 100 c 0
 689 90 694 81 694 68 c 0
 694 55 689 45 679 37 c 0
 669 29 659 24 648 24 c 2
 383 24 l 2
 372 24 362 29 352 37 c 0
 343 44 339 53 339 63 c 0
 339 78 344 89 353 100 c 0
 361 110 372 114 383 114 c 2
 470 114 l 1
 470 879 l 1
 190 879 l 1
 190 804 l 2
 190 793 185 782 177 774 c 0
 169 766 159 762 146 762 c 0
 133 762 123 766 115 774 c 0
 107 782 103 793 103 804 c 2
 103 924 l 2
EndSplineSet
EndChar

StartChar: TextTools
Encoding: 288 306 32
Width: 1024
Flags: H
LayerCount: 2
Fore
SplineSet
736 354 m 1
 604 699 l 1
 474 354 l 1
 736 354 l 1
631 792 m 2
 886 126 l 1
 919 126 l 2
 927 126 932 123 937 118 c 0
 942 113 945 104 945 96 c 0
 945 88 942 81 937 76 c 0
 932 71 927 68 919 68 c 2
 802 68 l 2
 794 68 788 71 783 76 c 0
 778 81 775 88 775 96 c 0
 775 104 778 113 783 118 c 0
 788 123 796 126 805 126 c 2
 825 126 l 1
 759 296 l 1
 454 296 l 1
 389 126 l 1
 405 126 l 2
 413 126 419 123 424 118 c 0
 429 113 432 104 432 96 c 0
 432 88 429 81 424 76 c 0
 419 71 413 68 405 68 c 2
 289 68 l 2
 281 68 275 71 270 76 c 0
 265 81 262 88 262 96 c 0
 262 104 265 113 270 118 c 0
 275 123 282 126 291 126 c 2
 328 126 l 1
 576 792 l 2
 580 804 591 809 604 809 c 0
 617 809 627 804 631 792 c 2
163 623 m 1
 360 623 l 1
 262 874 l 1
 163 623 l 1
262 981 m 0
 275 981 285 974 289 962 c 2
 438 579 l 1
 408 500 l 1
 380 565 l 1
 143 565 l 1
 88 429 l 2
 85 421 80 416 73 413 c 0
 66 410 60 410 52 413 c 0
 44 416 39 420 36 427 c 0
 33 434 33 441 36 449 c 2
 234 962 l 2
 238 974 249 981 262 981 c 0
EndSplineSet
EndChar

StartChar: Settings
Encoding: 289 307 33
Width: 1024
Flags: H
LayerCount: 2
Fore
SplineSet
26 666 m 0
 47 734 84 795 131 847 c 0
 138 855 145 859 153 859 c 0
 156 859 159 858 163 856 c 2
 276 816 l 2
 283 813 290 812 297 812 c 0
 306 812 316 814 325 819 c 0
 341 827 350 841 353 860 c 2
 375 978 l 2
 376 990 384 999 399 1002 c 2
 502 1012 l 2
 537 1012 570 1009 605 1002 c 0
 620 999 628 990 629 978 c 2
 651 860 l 2
 654 841 663 827 679 819 c 0
 688 814 697 812 706 812 c 0
 713 812 720 813 727 816 c 2
 841 856 l 2
 845 858 849 859 852 859 c 0
 860 859 866 855 873 847 c 0
 920 795 956 734 977 666 c 0
 979 662 979 659 979 656 c 0
 979 648 975 641 967 635 c 2
 879 558 l 2
 864 547 857 531 857 512 c 0
 857 493 864 479 879 468 c 2
 967 390 l 2
 975 384 979 378 979 370 c 0
 979 367 979 363 977 359 c 0
 956 291 920 230 873 178 c 0
 866 170 860 167 852 167 c 0
 849 167 845 167 841 169 c 2
 727 209 l 2
 720 212 713 213 706 213 c 0
 697 213 688 210 679 205 c 0
 663 197 654 184 651 165 c 2
 629 47 l 2
 628 35 620 26 605 23 c 2
 502 12 l 2
 467 12 434 16 399 23 c 0
 384 26 376 35 375 47 c 2
 353 165 l 2
 350 184 341 197 325 205 c 0
 316 210 306 213 297 213 c 0
 290 213 283 212 276 209 c 2
 163 169 l 2
 159 167 156 167 153 167 c 0
 145 167 138 170 131 178 c 0
 84 230 47 291 26 359 c 0
 24 363 24 367 24 370 c 0
 24 378 28 384 36 390 c 2
 126 468 l 2
 141 479 147 493 147 512 c 0
 147 531 141 547 126 558 c 2
 36 635 l 2
 28 641 24 648 24 656 c 0
 24 659 24 662 26 666 c 0
88 667 m 1
 166 602 l 2
 193 578 206 548 206 512 c 0
 206 476 193 448 166 424 c 2
 88 358 l 1
 105 312 129 271 160 233 c 1
 256 265 l 2
 271 270 284 273 297 273 c 0
 317 273 334 268 353 257 c 0
 384 240 403 212 410 176 c 2
 430 78 l 1
 454 74 478 71 502 71 c 0
 526 71 551 74 575 78 c 1
 593 176 l 2
 600 212 620 240 651 257 c 0
 670 268 687 273 707 273 c 0
 720 273 734 270 749 265 c 2
 843 233 l 1
 874 271 899 312 916 358 c 1
 839 424 l 2
 812 448 798 476 798 512 c 0
 798 548 812 578 839 602 c 2
 916 667 l 1
 899 713 874 754 843 792 c 1
 749 760 l 2
 734 755 720 752 707 752 c 0
 687 752 670 757 651 768 c 0
 620 785 600 812 593 848 c 2
 575 948 l 1
 551 952 526 954 502 954 c 0
 478 954 454 952 430 948 c 1
 410 848 l 2
 403 812 384 785 353 768 c 0
 334 757 317 752 297 752 c 0
 284 752 271 755 256 760 c 2
 160 792 l 1
 129 754 105 713 88 667 c 1
356 512 m 0
 356 552 371 589 399 618 c 0
 427 647 462 661 502 661 c 0
 542 661 577 647 605 618 c 0
 634 589 650 552 650 509 c 0
 650 470 635 437 607 409 c 0
 578 381 542 367 502 366 c 0
 501 366 500 366 499 366 c 0
 460 366 427 379 399 407 c 0
 371 436 356 472 356 512 c 0
415 512 m 0
 415 487 423 466 439 450 c 0
 455 434 477 425 502 425 c 0
 527 425 548 434 565 450 c 0
 582 466 592 487 592 512 c 0
 592 537 582 559 565 576 c 0
 548 593 527 602 502 602 c 0
 477 602 455 593 439 576 c 0
 423 559 415 537 415 512 c 0
EndSplineSet
EndChar
